<?xml version="1.0" encoding="iso-8859-1"?>
<!-- Uploaded to: SVG Repo, www.svgrepo.com, Generator: SVG Repo Mixer Tools -->
<svg height="800px" width="800px" version="1.1" id="Layer_1" xmlns="http://www.w3.org/2000/svg" xmlns:xlink="http://www.w3.org/1999/xlink" 
	 viewBox="0 0 512 512" xml:space="preserve">
<path style="fill:#57544C;" d="M489.739,456.348H22.261C9.966,456.348,0,446.382,0,434.087V77.913
	c0-12.295,9.966-22.261,22.261-22.261h467.478c12.295,0,22.261,9.966,22.261,22.261v356.174
	C512,446.382,502.034,456.348,489.739,456.348z"/>
<path style="fill:#A6A199;" d="M278.261,422.957L278.261,422.957c0,6.147-4.983,11.13-11.13,11.13H244.87
	c-6.147,0-11.13-4.983-11.13-11.13l0,0c0-6.147,4.983-11.13,11.13-11.13h22.261C273.278,411.826,278.261,416.809,278.261,422.957z"
	/>
<path style="fill:#E3D7B1;" d="M512,389.565H0V100.174h512V389.565z"/>
<path style="fill:#F7F2CD;" d="M244.87,239.304c0,58.398-47.341,105.739-105.739,105.739S33.391,297.702,33.391,239.304
	S80.732,133.565,139.13,133.565S244.87,180.906,244.87,239.304z"/>
<path style="fill:#88857E;" d="M166.957,322.783L166.957,322.783c-6.147,0-11.13-4.983-11.13-11.13V178.087h22.261v133.565
	C178.087,317.799,173.104,322.783,166.957,322.783z"/>
<path style="fill:#B1ACA3;" d="M222.609,267.13h-66.783V166.957h66.783V267.13z"/>
<path style="fill:#E5DFD7;" d="M222.609,239.304l-66.783-11.13v-33.391l66.783,11.13V239.304z"/>
<path style="fill:#88857E;" d="M133.565,166.957v55.652c0,12.295-9.966,22.261-22.261,22.261h-5.565v66.783
	c0,6.147-4.983,11.13-11.13,11.13c-6.147,0-11.13-4.983-11.13-11.13V244.87h-5.565c-12.295,0-22.261-9.966-22.261-22.261v-55.652
	h27.826h22.261H133.565z"/>
<path style="fill:#323030;" d="M72.348,222.609L72.348,222.609c-3.073,0-5.565-2.492-5.565-5.565v-50.087h11.13v50.087
	C77.913,220.117,75.421,222.609,72.348,222.609z M100.174,217.043v-50.087h-11.13v50.087c0,3.073,2.492,5.565,5.565,5.565l0,0
	C97.682,222.609,100.174,220.117,100.174,217.043z M122.435,217.043v-50.087h-11.13v50.087c0,3.073,2.492,5.565,5.565,5.565l0,0
	C119.943,222.609,122.435,220.117,122.435,217.043z"/>
<path style="fill:#5C4D38;" d="M289.391,178.087c0-6.147,4.983-11.13,11.13-11.13h150.076c6.147,0,11.13,4.983,11.13,11.13
	c0,6.147-4.983,11.13-11.13,11.13H300.522C294.374,189.217,289.391,184.234,289.391,178.087z M450.598,211.478H300.522
	c-6.147,0-11.13,4.983-11.13,11.13c0,6.147,4.983,11.13,11.13,11.13h150.076c6.147,0,11.13-4.983,11.13-11.13
	C461.728,216.461,456.745,211.478,450.598,211.478z M450.598,256H300.522c-6.147,0-11.13,4.983-11.13,11.13s4.983,11.13,11.13,11.13
	h150.076c6.147,0,11.13-4.983,11.13-11.13S456.745,256,450.598,256z M450.598,300.522H300.522c-6.147,0-11.13,4.983-11.13,11.13
	s4.983,11.13,11.13,11.13h150.076c6.147,0,11.13-4.983,11.13-11.13S456.745,300.522,450.598,300.522z"/>
</svg>